<svg width="1440" height="1024" viewBox="0 0 1440 1024" fill="none" xmlns="http://www.w3.org/2000/svg">
<g id="Desktop - 2">
<g id="akar-icons:sass-fill">
<path id="Vector" d="M996 117C1023.5 117 1046 139.5 1046 167C1046 194.5 1023.5 217 996 217C968.5 217 946 194.5 946 167C946 139.5 968.5 117 996 117ZM986 183.562C986.625 186.375 986.625 188.875 986 191.062L985.687 192C985.687 192.312 985.375 192.625 985.375 192.625C984.75 193.875 984.125 194.812 983.187 196.062C980.375 199.187 976.312 200.437 974.437 199.5C972.562 198.562 973.5 193.875 976.937 190.437C980.687 186.687 985.687 184.187 985.687 184.187L986 183.562V183.562ZM1027.25 138.25C1025.06 129.5 1010.37 126.375 996.312 131.375C988.187 134.5 979.125 139.187 972.562 145.125C964.75 152.312 963.812 158.562 964.125 161.062C966 170.125 978.5 176.375 983.812 180.75C982.25 181.375 971 187 968.5 192.937C965.687 199.187 968.812 203.562 971 203.875C977.562 205.75 984.437 202.312 987.875 197C991.312 191.688 991 185.125 989.437 181.687C991.868 180.937 994.453 180.829 996.937 181.375C1005.69 182.312 1007.56 187.937 1006.94 190.125C1006.31 192.312 1004.75 193.562 1004.12 194.187C1003.5 194.5 1003.19 194.812 1003.5 194.812C1003.5 195.125 1003.81 195.125 1004.44 195.125C1005.06 195.125 1009.12 193.25 1009.12 188.875C1009.44 183.562 1004.12 177.625 995.062 177.625C991.312 177.625 988.812 177.937 987.25 178.562C987.25 178.25 986.937 178.25 986.937 178.25C981.312 172.312 971 167.937 971.312 159.812C971.312 157 972.562 149.187 991.312 139.812C1006.62 132 1019.13 134.187 1021.31 138.875C1024.44 145.437 1014.75 157.937 998.812 159.812C992.562 160.437 989.437 158.25 988.812 157.312C987.875 156.375 987.875 156.375 987.563 156.375C986.938 156.687 987.25 157.312 987.563 157.937C988.188 159.187 990.062 161.375 993.5 162.625C996.312 163.562 1003.5 164.187 1012.25 160.75C1021.94 157 1029.44 146.687 1027.25 137.937V138.25Z" fill="#03A062"/>
</g>
<g id="fa6-brands:js">
<path id="Vector_2" d="M532 123.25V210.75H632V123.25H532ZM586.42 191.492C586.42 200.008 580.705 203.895 572.379 203.895C564.857 203.895 560.504 200.496 558.272 196.375L565.929 192.332C567.402 194.617 568.741 196.551 571.978 196.551C575.058 196.551 577.022 195.496 577.022 191.375V163.426H586.42V191.492V191.492ZM608.652 203.895C599.924 203.895 594.277 200.262 591.531 195.496L599.187 191.629C601.196 194.5 603.83 196.629 608.451 196.629C612.335 196.629 614.835 194.93 614.835 192.566C614.835 189.754 612.29 188.758 607.982 187.098L605.638 186.219C598.853 183.699 594.366 180.516 594.366 173.816C594.366 167.645 599.746 162.957 608.116 162.957C614.098 162.957 618.384 164.773 621.464 169.539L614.143 173.641C612.536 171.121 610.795 170.125 608.094 170.125C605.348 170.125 603.607 171.648 603.607 173.641C603.607 176.102 605.348 177.098 609.388 178.641L611.732 179.52C619.723 182.508 624.21 185.574 624.21 192.449C624.21 199.832 617.558 203.895 608.652 203.895V203.895Z" fill="white"/>
</g>
<g id="akar-icons:css-fill">
<path id="Vector_3" d="M425.258 117H436V121.492H429.75V125.983H436V130.475H425.258V117ZM438.146 117H448.892V120.908H442.642V121.688H448.892V130.671H438.146V126.571H444.396V125.788H438.146V117ZM451.042 117H461.779V120.908H455.529V121.688H461.779V130.671H451.042V126.571H457.292V125.788H451.042V117Z" fill="#03A062"/>
<path id="Vector_4" fill-rule="evenodd" clip-rule="evenodd" d="M443.962 217L415.029 208.967L406.5 136.654H481.5L472.975 208.958L443.962 217ZM423.362 169.387L424.158 178.254H454.896L453.867 189.754L443.975 192.429H443.967L434.092 189.762L433.458 182.692H424.554L425.796 196.617L443.962 201.658L462.158 196.617L464.375 171.767L464.592 169.387L466.192 151.433H421.767L422.575 160.304H456.475L455.667 169.387H423.362V169.387Z" fill="#03A062"/>
</g>
<g id="akar-icons:html-fill">
<g id="Group">
<g id="Group_2">
<path id="Vector_5" d="M277.167 117H281.675V121.454H285.8V117H290.308V130.483H285.8V125.971H281.675V130.483H277.171V117H277.167ZM296.233 121.471H292.267V117H304.712V121.471H300.742V130.483H296.233V121.471V121.471ZM306.687 117H311.387L314.279 121.737L317.167 117H321.867V130.483H317.379V123.8L314.279 128.596H314.2L311.096 123.804V130.483H306.687V117V117ZM324.108 117H328.621V126.029H334.954V130.487H324.108V117V117Z" fill="white"/>
<path id="Vector_6" fill-rule="evenodd" clip-rule="evenodd" d="M277.025 208.967L268.5 136.654H343.5L334.971 208.958L305.958 217L277.025 208.967ZM294.262 169.383L293.454 160.3H327.392L328.183 151.433H283.767L286.158 178.254H316.896L315.867 189.754L305.975 192.429H305.967L296.092 189.762L295.458 182.692H286.55L287.792 196.617L305.958 201.658L324.154 196.617L326.371 171.767L326.587 169.387H294.262V169.383Z" fill="white"/>
</g>
</g>
</g>
<path id="Vector_7" d="M719.844 222.428C718.348 222.428 716.83 222.076 715.513 221.412L701.741 214.283C699.687 213.268 700.692 212.916 701.362 212.721C704.107 211.881 704.665 211.705 707.589 210.24C707.902 210.084 708.304 210.143 708.616 210.318L719.196 215.807C719.576 216.002 720.112 216.002 720.469 215.807L761.696 194.986C762.076 194.791 762.321 194.4 762.321 194.01V152.369C762.321 151.959 762.076 151.588 761.674 151.373L720.469 130.572C720.089 130.377 719.576 130.377 719.196 130.572L678.013 151.393C677.612 151.588 677.366 151.979 677.366 152.389V194.01C677.366 194.4 677.612 194.791 678.013 194.967L689.308 200.67C695.446 203.346 699.196 200.201 699.196 197.018V155.924C699.196 155.338 699.732 154.889 700.402 154.889H705.625C706.272 154.889 706.83 155.338 706.83 155.924V197.037C706.83 204.186 702.366 208.287 694.621 208.287C692.232 208.287 690.357 208.287 685.134 206.021L674.33 200.572C671.652 199.225 670 196.705 670 193.99V152.369C670 149.674 671.652 147.135 674.33 145.787L715.513 124.967C718.125 123.678 721.585 123.678 724.174 124.967L765.402 145.807C768.08 147.154 769.732 149.674 769.732 152.389V194.01C769.732 196.705 768.08 199.225 765.402 200.592L724.174 221.412C722.857 222.076 721.362 222.428 719.844 222.428ZM753.125 181.393C753.125 173.6 747.098 171.529 734.442 170.064C721.629 168.58 720.335 167.818 720.335 165.201C720.335 163.033 721.429 160.143 730.915 160.143C739.375 160.143 742.5 161.744 743.795 166.744C743.906 167.213 744.397 167.564 744.955 167.564H750.312C750.647 167.564 750.96 167.447 751.183 167.232C751.406 167.018 751.518 166.725 751.496 166.432C750.67 157.818 744.129 153.814 730.915 153.814C719.152 153.814 712.143 158.15 712.143 165.436C712.143 173.326 719.129 175.514 730.402 176.49C743.906 177.643 744.955 179.381 744.955 181.705C744.955 185.729 741.25 187.447 732.567 187.447C721.652 187.447 719.263 185.045 718.46 180.299C718.371 179.791 717.879 179.42 717.277 179.42H711.942C711.272 179.42 710.759 179.889 710.759 180.455C710.759 186.529 714.531 193.775 732.589 193.775C745.625 193.756 753.125 189.244 753.125 181.393V181.393Z" fill="#03A062"/>
<g id="carbon:sql">
<path id="Vector_8" d="M883 187.625V150.125H876.75V193.875H901.75V187.625H883ZM864.25 150.125H851.75C850.092 150.125 848.503 150.783 847.331 151.956C846.158 153.128 845.5 154.717 845.5 156.375V187.625C845.5 189.283 846.158 190.872 847.331 192.044C848.503 193.217 850.092 193.875 851.75 193.875H854.875V200.125C854.875 201.783 855.533 203.372 856.706 204.544C857.878 205.717 859.467 206.375 861.125 206.375H867.375V200.125H861.125V193.875H864.25C865.908 193.875 867.497 193.217 868.669 192.044C869.842 190.872 870.5 189.283 870.5 187.625V156.375C870.5 154.717 869.842 153.128 868.669 151.956C867.497 150.783 865.908 150.125 864.25 150.125ZM851.75 187.625V156.375H864.25V187.625H851.75ZM833 193.875H814.25V187.625H833V175.125H820.5C818.842 175.125 817.253 174.467 816.081 173.294C814.908 172.122 814.25 170.533 814.25 168.875V156.375C814.25 154.717 814.908 153.128 816.081 151.956C817.253 150.783 818.842 150.125 820.5 150.125H839.25V156.375H820.5V168.875H833C834.658 168.875 836.247 169.533 837.419 170.706C838.592 171.878 839.25 173.467 839.25 175.125V187.625C839.25 189.283 838.592 190.872 837.419 192.044C836.247 193.217 834.658 193.875 833 193.875Z" fill="white"/>
</g>
<g id="akar-icons:php-fill">
<path id="Vector_9" d="M1134 144.917C1105.96 144.917 1084 156.813 1084 172C1084 187.188 1105.96 199.083 1134 199.083C1162.04 199.083 1184 187.188 1184 172C1184 156.813 1162.04 144.917 1134 144.917ZM1128.81 153.25H1134.27L1132.53 161.583H1137.41C1140.5 161.583 1142.57 162.017 1143.76 163.096C1144.91 164.163 1145.26 165.913 1144.8 168.296L1142.63 178.25H1137.08L1139.08 169.046C1139.32 167.783 1139.22 166.904 1138.8 166.442C1138.38 165.979 1137.45 165.75 1136.06 165.75H1131.69L1129.05 178.25H1123.58L1128.81 153.25V153.25ZM1104.83 161.583H1115.94C1121.24 161.583 1124.45 165.133 1123.19 170.429C1121.73 176.583 1117.83 178.25 1110.65 178.25H1107.22L1106.13 184.5H1100.61L1104.83 161.583ZM1148.58 161.583H1159.69C1164.99 161.583 1168.2 165.133 1166.94 170.429C1165.48 176.583 1161.58 178.25 1154.4 178.25H1150.97L1149.88 184.5H1144.36L1148.58 161.583ZM1109.56 165.75L1107.99 174.083H1111.55C1114.64 174.083 1117.5 173.733 1117.98 169.133C1118.16 167.354 1117.42 165.75 1113.86 165.75H1109.56ZM1153.31 165.75L1151.74 174.083H1155.3C1158.39 174.083 1161.25 173.733 1161.73 169.133C1161.91 167.354 1161.17 165.75 1157.61 165.75H1153.31V165.75Z" fill="white"/>
</g>
<path id="click in the programming languages" d="M562.299 87.5176C562.793 87.5176 563.25 87.4165 563.669 87.2144C564.089 87.0122 564.433 86.7352 564.703 86.3833C564.972 86.0239 565.126 85.6159 565.163 85.1592H567.14C567.102 85.8779 566.859 86.548 566.41 87.1694C565.968 87.7834 565.388 88.2812 564.669 88.6631C563.95 89.0374 563.16 89.2246 562.299 89.2246C561.386 89.2246 560.589 89.0636 559.907 88.7417C559.233 88.4198 558.672 87.978 558.223 87.4165C557.781 86.855 557.448 86.2111 557.223 85.4849C557.006 84.7511 556.897 83.9762 556.897 83.1602V82.6885C556.897 81.8724 557.006 81.1012 557.223 80.375C557.448 79.6413 557.781 78.9937 558.223 78.4321C558.672 77.8706 559.233 77.4289 559.907 77.1069C560.589 76.785 561.386 76.624 562.299 76.624C563.25 76.624 564.081 76.8187 564.792 77.208C565.504 77.5898 566.062 78.1139 566.466 78.7803C566.878 79.4391 567.102 80.1878 567.14 81.0264H565.163C565.126 80.5247 564.983 80.0718 564.736 79.6675C564.497 79.2632 564.167 78.9412 563.748 78.7017C563.336 78.4546 562.853 78.3311 562.299 78.3311C561.663 78.3311 561.128 78.4583 560.693 78.7129C560.267 78.96 559.926 79.2969 559.671 79.7236C559.424 80.1429 559.245 80.6108 559.132 81.1274C559.028 81.6366 558.975 82.1569 558.975 82.6885V83.1602C558.975 83.6917 559.028 84.2158 559.132 84.7324C559.237 85.249 559.413 85.717 559.66 86.1362C559.915 86.5555 560.255 86.8924 560.682 87.147C561.116 87.394 561.655 87.5176 562.299 87.5176ZM571.733 71.75V89H569.644V71.75H571.733ZM577.326 76.8486V89H575.237V76.8486H577.326ZM575.08 73.6255C575.08 73.2886 575.181 73.0041 575.383 72.772C575.592 72.5399 575.899 72.4238 576.304 72.4238C576.701 72.4238 577.004 72.5399 577.213 72.772C577.431 73.0041 577.539 73.2886 577.539 73.6255C577.539 73.9474 577.431 74.2244 577.213 74.4565C577.004 74.6812 576.701 74.7935 576.304 74.7935C575.899 74.7935 575.592 74.6812 575.383 74.4565C575.181 74.2244 575.08 73.9474 575.08 73.6255ZM585.524 87.5176C586.018 87.5176 586.475 87.4165 586.894 87.2144C587.313 87.0122 587.658 86.7352 587.927 86.3833C588.197 86.0239 588.35 85.6159 588.388 85.1592H590.364C590.327 85.8779 590.083 86.548 589.634 87.1694C589.193 87.7834 588.612 88.2812 587.894 88.6631C587.175 89.0374 586.385 89.2246 585.524 89.2246C584.611 89.2246 583.813 89.0636 583.132 88.7417C582.458 88.4198 581.896 87.978 581.447 87.4165C581.006 86.855 580.672 86.2111 580.448 85.4849C580.231 84.7511 580.122 83.9762 580.122 83.1602V82.6885C580.122 81.8724 580.231 81.1012 580.448 80.375C580.672 79.6413 581.006 78.9937 581.447 78.4321C581.896 77.8706 582.458 77.4289 583.132 77.1069C583.813 76.785 584.611 76.624 585.524 76.624C586.475 76.624 587.306 76.8187 588.017 77.208C588.728 77.5898 589.286 78.1139 589.69 78.7803C590.102 79.4391 590.327 80.1878 590.364 81.0264H588.388C588.35 80.5247 588.208 80.0718 587.961 79.6675C587.721 79.2632 587.392 78.9412 586.973 78.7017C586.561 78.4546 586.078 78.3311 585.524 78.3311C584.888 78.3311 584.352 78.4583 583.918 78.7129C583.491 78.96 583.151 79.2969 582.896 79.7236C582.649 80.1429 582.469 80.6108 582.357 81.1274C582.252 81.6366 582.2 82.1569 582.2 82.6885V83.1602C582.2 83.6917 582.252 84.2158 582.357 84.7324C582.462 85.249 582.638 85.717 582.885 86.1362C583.139 86.5555 583.48 86.8924 583.907 87.147C584.341 87.394 584.88 87.5176 585.524 87.5176ZM594.789 71.75V89H592.7V71.75H594.789ZM602.212 76.8486L596.912 82.52L593.947 85.5972L593.778 83.3848L595.901 80.8467L599.674 76.8486H602.212ZM600.314 89L595.979 83.2051L597.058 81.3521L602.763 89H600.314ZM612.32 76.8486V89H610.231V76.8486H612.32ZM610.074 73.6255C610.074 73.2886 610.175 73.0041 610.377 72.772C610.587 72.5399 610.894 72.4238 611.298 72.4238C611.695 72.4238 611.998 72.5399 612.208 72.772C612.425 73.0041 612.533 73.2886 612.533 73.6255C612.533 73.9474 612.425 74.2244 612.208 74.4565C611.998 74.6812 611.695 74.7935 611.298 74.7935C610.894 74.7935 610.587 74.6812 610.377 74.4565C610.175 74.2244 610.074 73.9474 610.074 73.6255ZM617.733 79.4429V89H615.655V76.8486H617.621L617.733 79.4429ZM617.239 82.4639L616.374 82.4302C616.382 81.5991 616.505 80.8317 616.745 80.1279C616.984 79.4167 617.321 78.799 617.755 78.2749C618.19 77.7508 618.706 77.3465 619.305 77.062C619.912 76.77 620.582 76.624 621.315 76.624C621.914 76.624 622.453 76.7064 622.933 76.8711C623.412 77.0283 623.82 77.2829 624.157 77.6348C624.501 77.9867 624.763 78.4434 624.943 79.0049C625.123 79.5589 625.212 80.2365 625.212 81.0376V89H623.124V81.0151C623.124 80.3787 623.03 79.8696 622.843 79.4878C622.656 79.0985 622.382 78.8177 622.023 78.6455C621.664 78.4658 621.222 78.376 620.698 78.376C620.181 78.376 619.709 78.4845 619.283 78.7017C618.863 78.9188 618.5 79.2183 618.193 79.6001C617.894 79.9819 617.658 80.4199 617.486 80.9141C617.321 81.4007 617.239 81.9173 617.239 82.4639ZM639.161 76.8486V78.4434H632.591V76.8486H639.161ZM634.814 73.895H636.892V85.9902C636.892 86.402 636.956 86.7127 637.083 86.9224C637.21 87.132 637.375 87.2705 637.577 87.3379C637.779 87.4053 637.996 87.439 638.229 87.439C638.401 87.439 638.58 87.424 638.768 87.394C638.962 87.3566 639.108 87.3267 639.206 87.3042L639.217 89C639.052 89.0524 638.835 89.1011 638.565 89.146C638.303 89.1984 637.985 89.2246 637.611 89.2246C637.102 89.2246 636.634 89.1235 636.207 88.9214C635.78 88.7192 635.44 88.3823 635.185 87.9106C634.938 87.4315 634.814 86.7876 634.814 85.979V73.895ZM643.675 71.75V89H641.598V71.75H643.675ZM643.181 82.4639L642.316 82.4302C642.324 81.5991 642.447 80.8317 642.687 80.1279C642.927 79.4167 643.264 78.799 643.698 78.2749C644.132 77.7508 644.649 77.3465 645.248 77.062C645.854 76.77 646.524 76.624 647.258 76.624C647.857 76.624 648.396 76.7064 648.875 76.8711C649.354 77.0283 649.762 77.2829 650.099 77.6348C650.444 77.9867 650.706 78.4434 650.885 79.0049C651.065 79.5589 651.155 80.2365 651.155 81.0376V89H649.066V81.0151C649.066 80.3787 648.972 79.8696 648.785 79.4878C648.598 79.0985 648.325 78.8177 647.965 78.6455C647.606 78.4658 647.164 78.376 646.64 78.376C646.124 78.376 645.652 78.4845 645.225 78.7017C644.806 78.9188 644.443 79.2183 644.136 79.6001C643.836 79.9819 643.6 80.4199 643.428 80.9141C643.264 81.4007 643.181 81.9173 643.181 82.4639ZM659.308 89.2246C658.462 89.2246 657.695 89.0824 657.006 88.7979C656.325 88.5059 655.737 88.0978 655.243 87.5737C654.756 87.0496 654.382 86.4282 654.12 85.7095C653.858 84.9907 653.727 84.2046 653.727 83.3511V82.8794C653.727 81.8911 653.873 81.0114 654.165 80.2402C654.457 79.4616 654.853 78.8027 655.355 78.2637C655.857 77.7246 656.426 77.3166 657.062 77.0396C657.698 76.7625 658.357 76.624 659.039 76.624C659.907 76.624 660.656 76.7738 661.285 77.0732C661.921 77.3727 662.441 77.792 662.846 78.3311C663.25 78.8626 663.549 79.4915 663.744 80.2178C663.939 80.9365 664.036 81.7227 664.036 82.5762V83.5083H654.962V81.8125H661.958V81.6553C661.929 81.1162 661.816 80.5921 661.622 80.083C661.434 79.5739 661.135 79.1546 660.723 78.8252C660.311 78.4958 659.75 78.3311 659.039 78.3311C658.567 78.3311 658.133 78.4321 657.736 78.6343C657.339 78.8289 656.998 79.1209 656.714 79.5103C656.429 79.8996 656.208 80.375 656.051 80.9365C655.894 81.498 655.815 82.1457 655.815 82.8794V83.3511C655.815 83.9276 655.894 84.4704 656.051 84.9795C656.216 85.4811 656.452 85.9229 656.759 86.3047C657.073 86.6865 657.451 86.986 657.893 87.2031C658.342 87.4202 658.851 87.5288 659.42 87.5288C660.154 87.5288 660.776 87.3791 661.285 87.0796C661.794 86.7801 662.239 86.3796 662.621 85.8779L663.879 86.8774C663.617 87.2743 663.284 87.6523 662.879 88.0117C662.475 88.3711 661.977 88.6631 661.386 88.8877C660.802 89.1123 660.109 89.2246 659.308 89.2246ZM674.245 79.1846V93.6719H672.156V76.8486H674.065L674.245 79.1846ZM682.432 82.8232V83.0591C682.432 83.9425 682.327 84.7624 682.117 85.5186C681.908 86.2673 681.601 86.9186 681.196 87.4727C680.799 88.0267 680.309 88.4572 679.725 88.7642C679.141 89.0711 678.471 89.2246 677.715 89.2246C676.944 89.2246 676.262 89.0973 675.671 88.8428C675.079 88.5882 674.578 88.2176 674.166 87.731C673.754 87.2443 673.425 86.6603 673.178 85.979C672.938 85.2977 672.773 84.5303 672.684 83.6768V82.4189C672.773 81.5205 672.942 80.7157 673.189 80.0044C673.436 79.2931 673.762 78.6867 674.166 78.1851C674.578 77.6759 675.076 77.2904 675.66 77.0283C676.244 76.7588 676.917 76.624 677.681 76.624C678.445 76.624 679.122 76.7738 679.714 77.0732C680.305 77.3652 680.803 77.7845 681.208 78.3311C681.612 78.8776 681.915 79.5327 682.117 80.2964C682.327 81.0526 682.432 81.8949 682.432 82.8232ZM680.343 83.0591V82.8232C680.343 82.2168 680.279 81.6478 680.152 81.1162C680.025 80.5771 679.826 80.1055 679.557 79.7012C679.295 79.2894 678.958 78.9674 678.546 78.7354C678.134 78.4958 677.644 78.376 677.075 78.376C676.551 78.376 676.094 78.4658 675.705 78.6455C675.323 78.8252 674.997 79.0685 674.728 79.3755C674.458 79.675 674.237 80.0194 674.065 80.4087C673.9 80.7905 673.777 81.1873 673.694 81.5991V84.5078C673.844 85.0319 674.054 85.526 674.323 85.9902C674.593 86.4469 674.952 86.8175 675.401 87.1021C675.851 87.3791 676.416 87.5176 677.097 87.5176C677.659 87.5176 678.142 87.4015 678.546 87.1694C678.958 86.9299 679.295 86.6042 679.557 86.1924C679.826 85.7806 680.025 85.3089 680.152 84.7773C680.279 84.2383 680.343 83.6655 680.343 83.0591ZM687.16 78.7578V89H685.082V76.8486H687.104L687.16 78.7578ZM690.956 76.7812L690.944 78.7129C690.772 78.6755 690.607 78.653 690.45 78.6455C690.3 78.6305 690.128 78.623 689.934 78.623C689.454 78.623 689.031 78.6979 688.665 78.8477C688.298 78.9974 687.987 79.207 687.732 79.4766C687.478 79.7461 687.276 80.068 687.126 80.4424C686.984 80.8092 686.89 81.2135 686.845 81.6553L686.261 81.9922C686.261 81.2585 686.332 80.5697 686.475 79.9258C686.624 79.2819 686.853 78.7129 687.16 78.2188C687.467 77.7171 687.856 77.3278 688.328 77.0508C688.807 76.7663 689.376 76.624 690.035 76.624C690.184 76.624 690.357 76.6427 690.551 76.6802C690.746 76.7101 690.881 76.7438 690.956 76.7812ZM692.101 83.0591V82.8008C692.101 81.9248 692.228 81.1125 692.483 80.3638C692.737 79.6076 693.104 78.9525 693.583 78.3984C694.063 77.8369 694.643 77.4027 695.324 77.0957C696.006 76.7812 696.769 76.624 697.615 76.624C698.469 76.624 699.236 76.7812 699.917 77.0957C700.606 77.4027 701.19 77.8369 701.669 78.3984C702.156 78.9525 702.527 79.6076 702.781 80.3638C703.036 81.1125 703.163 81.9248 703.163 82.8008V83.0591C703.163 83.9351 703.036 84.7474 702.781 85.4961C702.527 86.2448 702.156 86.8999 701.669 87.4614C701.19 88.0155 700.61 88.4497 699.929 88.7642C699.255 89.0711 698.491 89.2246 697.638 89.2246C696.784 89.2246 696.017 89.0711 695.335 88.7642C694.654 88.4497 694.07 88.0155 693.583 87.4614C693.104 86.8999 692.737 86.2448 692.483 85.4961C692.228 84.7474 692.101 83.9351 692.101 83.0591ZM694.179 82.8008V83.0591C694.179 83.6655 694.25 84.2383 694.392 84.7773C694.534 85.3089 694.748 85.7806 695.032 86.1924C695.324 86.6042 695.687 86.9299 696.122 87.1694C696.556 87.4015 697.061 87.5176 697.638 87.5176C698.207 87.5176 698.705 87.4015 699.131 87.1694C699.566 86.9299 699.925 86.6042 700.209 86.1924C700.494 85.7806 700.707 85.3089 700.85 84.7773C700.999 84.2383 701.074 83.6655 701.074 83.0591V82.8008C701.074 82.2018 700.999 81.6366 700.85 81.105C700.707 80.5659 700.49 80.0905 700.198 79.6787C699.914 79.2594 699.554 78.93 699.12 78.6904C698.693 78.4508 698.192 78.3311 697.615 78.3311C697.046 78.3311 696.545 78.4508 696.11 78.6904C695.684 78.93 695.324 79.2594 695.032 79.6787C694.748 80.0905 694.534 80.5659 694.392 81.105C694.25 81.6366 694.179 82.2018 694.179 82.8008ZM713.641 76.8486H715.528V88.7417C715.528 89.8123 715.311 90.7257 714.876 91.4819C714.442 92.2381 713.836 92.8109 713.057 93.2002C712.286 93.597 711.395 93.7954 710.384 93.7954C709.965 93.7954 709.471 93.728 708.902 93.5933C708.34 93.466 707.786 93.2451 707.24 92.9307C706.701 92.6237 706.248 92.2082 705.881 91.6841L706.97 90.4487C707.479 91.0627 708.011 91.4894 708.565 91.729C709.126 91.9686 709.681 92.0884 710.227 92.0884C710.886 92.0884 711.455 91.9648 711.934 91.7178C712.413 91.4707 712.784 91.1038 713.046 90.6172C713.315 90.138 713.45 89.5465 713.45 88.8428V79.5215L713.641 76.8486ZM705.274 83.0591V82.8232C705.274 81.8949 705.383 81.0526 705.6 80.2964C705.825 79.5327 706.143 78.8776 706.555 78.3311C706.974 77.7845 707.479 77.3652 708.071 77.0732C708.662 76.7738 709.329 76.624 710.07 76.624C710.833 76.624 711.5 76.7588 712.069 77.0283C712.645 77.2904 713.132 77.6759 713.529 78.1851C713.933 78.6867 714.251 79.2931 714.483 80.0044C714.715 80.7157 714.876 81.5205 714.966 82.4189V83.4521C714.884 84.3431 714.723 85.1442 714.483 85.8555C714.251 86.5667 713.933 87.1732 713.529 87.6748C713.132 88.1764 712.645 88.562 712.069 88.8315C711.492 89.0936 710.819 89.2246 710.047 89.2246C709.321 89.2246 708.662 89.0711 708.071 88.7642C707.487 88.4572 706.985 88.0267 706.566 87.4727C706.147 86.9186 705.825 86.2673 705.6 85.5186C705.383 84.7624 705.274 83.9425 705.274 83.0591ZM707.352 82.8232V83.0591C707.352 83.6655 707.412 84.2345 707.532 84.7661C707.659 85.2977 707.85 85.7656 708.104 86.1699C708.367 86.5742 708.7 86.8924 709.104 87.1245C709.508 87.3491 709.991 87.4614 710.553 87.4614C711.242 87.4614 711.811 87.3154 712.26 87.0234C712.709 86.7314 713.065 86.3459 713.327 85.8667C713.596 85.3875 713.806 84.8672 713.956 84.3057V81.5991C713.873 81.1873 713.746 80.7905 713.574 80.4087C713.409 80.0194 713.192 79.675 712.922 79.3755C712.66 79.0685 712.335 78.8252 711.945 78.6455C711.556 78.4658 711.099 78.376 710.575 78.376C710.006 78.376 709.516 78.4958 709.104 78.7354C708.7 78.9674 708.367 79.2894 708.104 79.7012C707.85 80.1055 707.659 80.5771 707.532 81.1162C707.412 81.6478 707.352 82.2168 707.352 82.8232ZM720.761 78.7578V89H718.684V76.8486H720.705L720.761 78.7578ZM724.557 76.7812L724.546 78.7129C724.374 78.6755 724.209 78.653 724.052 78.6455C723.902 78.6305 723.73 78.623 723.535 78.623C723.056 78.623 722.633 78.6979 722.266 78.8477C721.899 78.9974 721.589 79.207 721.334 79.4766C721.079 79.7461 720.877 80.068 720.728 80.4424C720.585 80.8092 720.492 81.2135 720.447 81.6553L719.863 81.9922C719.863 81.2585 719.934 80.5697 720.076 79.9258C720.226 79.2819 720.454 78.7129 720.761 78.2188C721.068 77.7171 721.458 77.3278 721.929 77.0508C722.408 76.7663 722.977 76.624 723.636 76.624C723.786 76.624 723.958 76.6427 724.153 76.6802C724.347 76.7101 724.482 76.7438 724.557 76.7812ZM733.193 86.9224V80.667C733.193 80.1878 733.096 79.7723 732.901 79.4204C732.714 79.061 732.43 78.784 732.048 78.5894C731.666 78.3947 731.194 78.2974 730.633 78.2974C730.109 78.2974 729.648 78.3872 729.251 78.5669C728.862 78.7466 728.555 78.9824 728.331 79.2744C728.113 79.5664 728.005 79.8809 728.005 80.2178H725.927C725.927 79.7835 726.04 79.353 726.264 78.9263C726.489 78.4995 726.811 78.1139 727.23 77.7695C727.657 77.4176 728.166 77.1406 728.757 76.9385C729.356 76.7288 730.023 76.624 730.756 76.624C731.64 76.624 732.418 76.7738 733.092 77.0732C733.774 77.3727 734.305 77.8257 734.687 78.4321C735.076 79.0311 735.271 79.7835 735.271 80.6895V86.3496C735.271 86.7539 735.305 87.1844 735.372 87.6411C735.447 88.0978 735.556 88.4909 735.698 88.8203V89H733.53C733.425 88.7604 733.343 88.4422 733.283 88.0454C733.223 87.6411 733.193 87.2668 733.193 86.9224ZM733.553 81.6328L733.575 83.0928H731.475C730.884 83.0928 730.356 83.1414 729.892 83.2388C729.427 83.3286 729.038 83.4671 728.724 83.6543C728.409 83.8415 728.17 84.0773 728.005 84.3618C727.84 84.6388 727.758 84.9645 727.758 85.3389C727.758 85.7207 727.844 86.0688 728.016 86.3833C728.188 86.6978 728.447 86.9486 728.791 87.1357C729.143 87.3154 729.573 87.4053 730.083 87.4053C730.719 87.4053 731.28 87.2705 731.767 87.001C732.254 86.7314 732.639 86.402 732.924 86.0127C733.216 85.6234 733.373 85.2453 733.396 84.8784L734.283 85.8779C734.23 86.1924 734.088 86.5405 733.856 86.9224C733.624 87.3042 733.313 87.6711 732.924 88.0229C732.542 88.3674 732.085 88.6556 731.554 88.8877C731.03 89.1123 730.438 89.2246 729.779 89.2246C728.956 89.2246 728.233 89.0636 727.612 88.7417C726.998 88.4198 726.519 87.9893 726.174 87.4502C725.837 86.9036 725.669 86.2935 725.669 85.6196C725.669 84.9683 725.796 84.3955 726.051 83.9014C726.305 83.3997 726.672 82.9842 727.151 82.6548C727.631 82.3179 728.207 82.0633 728.881 81.8911C729.555 81.7189 730.307 81.6328 731.138 81.6328H733.553ZM740.605 79.2632V89H738.517V76.8486H740.493L740.605 79.2632ZM740.179 82.4639L739.213 82.4302C739.22 81.5991 739.329 80.8317 739.539 80.1279C739.748 79.4167 740.059 78.799 740.471 78.2749C740.882 77.7508 741.395 77.3465 742.009 77.062C742.623 76.77 743.334 76.624 744.143 76.624C744.712 76.624 745.236 76.7064 745.715 76.8711C746.194 77.0283 746.61 77.2791 746.962 77.6235C747.314 77.9679 747.587 78.4097 747.782 78.9487C747.976 79.4878 748.074 80.1392 748.074 80.9028V89H745.996V81.0039C745.996 80.3675 745.888 79.8584 745.67 79.4766C745.461 79.0947 745.161 78.8177 744.772 78.6455C744.383 78.4658 743.926 78.376 743.402 78.376C742.788 78.376 742.275 78.4845 741.863 78.7017C741.451 78.9188 741.122 79.2183 740.875 79.6001C740.628 79.9819 740.448 80.4199 740.336 80.9141C740.231 81.4007 740.179 81.9173 740.179 82.4639ZM748.051 81.3184L746.659 81.7451C746.666 81.0788 746.775 80.4386 746.984 79.8247C747.201 79.2108 747.512 78.6642 747.917 78.1851C748.328 77.7059 748.834 77.3278 749.433 77.0508C750.032 76.7663 750.717 76.624 751.488 76.624C752.139 76.624 752.716 76.7101 753.217 76.8823C753.726 77.0545 754.153 77.3203 754.498 77.6797C754.849 78.0316 755.115 78.4845 755.295 79.0386C755.475 79.5926 755.564 80.2515 755.564 81.0151V89H753.476V80.9927C753.476 80.3114 753.367 79.7835 753.15 79.4092C752.94 79.0273 752.641 78.7616 752.251 78.6118C751.87 78.4546 751.413 78.376 750.881 78.376C750.425 78.376 750.02 78.4546 749.668 78.6118C749.317 78.769 749.021 78.9862 748.781 79.2632C748.542 79.5327 748.358 79.8434 748.231 80.1953C748.111 80.5472 748.051 80.9215 748.051 81.3184ZM760.775 79.2632V89H758.687V76.8486H760.663L760.775 79.2632ZM760.349 82.4639L759.383 82.4302C759.39 81.5991 759.499 80.8317 759.708 80.1279C759.918 79.4167 760.229 78.799 760.641 78.2749C761.052 77.7508 761.565 77.3465 762.179 77.062C762.793 76.77 763.504 76.624 764.313 76.624C764.882 76.624 765.406 76.7064 765.885 76.8711C766.364 77.0283 766.78 77.2791 767.132 77.6235C767.484 77.9679 767.757 78.4097 767.952 78.9487C768.146 79.4878 768.244 80.1392 768.244 80.9028V89H766.166V81.0039C766.166 80.3675 766.057 79.8584 765.84 79.4766C765.631 79.0947 765.331 78.8177 764.942 78.6455C764.553 78.4658 764.096 78.376 763.572 78.376C762.958 78.376 762.445 78.4845 762.033 78.7017C761.621 78.9188 761.292 79.2183 761.045 79.6001C760.798 79.9819 760.618 80.4199 760.506 80.9141C760.401 81.4007 760.349 81.9173 760.349 82.4639ZM768.221 81.3184L766.829 81.7451C766.836 81.0788 766.945 80.4386 767.154 79.8247C767.371 79.2108 767.682 78.6642 768.086 78.1851C768.498 77.7059 769.004 77.3278 769.603 77.0508C770.201 76.7663 770.887 76.624 771.658 76.624C772.309 76.624 772.886 76.7101 773.387 76.8823C773.896 77.0545 774.323 77.3203 774.667 77.6797C775.019 78.0316 775.285 78.4845 775.465 79.0386C775.645 79.5926 775.734 80.2515 775.734 81.0151V89H773.646V80.9927C773.646 80.3114 773.537 79.7835 773.32 79.4092C773.11 79.0273 772.811 78.7616 772.421 78.6118C772.04 78.4546 771.583 78.376 771.051 78.376C770.595 78.376 770.19 78.4546 769.838 78.6118C769.486 78.769 769.191 78.9862 768.951 79.2632C768.712 79.5327 768.528 79.8434 768.401 80.1953C768.281 80.5472 768.221 80.9215 768.221 81.3184ZM781.136 76.8486V89H779.047V76.8486H781.136ZM778.89 73.6255C778.89 73.2886 778.991 73.0041 779.193 72.772C779.403 72.5399 779.71 72.4238 780.114 72.4238C780.511 72.4238 780.814 72.5399 781.024 72.772C781.241 73.0041 781.35 73.2886 781.35 73.6255C781.35 73.9474 781.241 74.2244 781.024 74.4565C780.814 74.6812 780.511 74.7935 780.114 74.7935C779.71 74.7935 779.403 74.6812 779.193 74.4565C778.991 74.2244 778.89 73.9474 778.89 73.6255ZM786.549 79.4429V89H784.472V76.8486H786.437L786.549 79.4429ZM786.055 82.4639L785.19 82.4302C785.198 81.5991 785.321 80.8317 785.561 80.1279C785.801 79.4167 786.138 78.799 786.572 78.2749C787.006 77.7508 787.523 77.3465 788.122 77.062C788.728 76.77 789.398 76.624 790.132 76.624C790.731 76.624 791.27 76.7064 791.749 76.8711C792.228 77.0283 792.636 77.2829 792.973 77.6348C793.318 77.9867 793.58 78.4434 793.759 79.0049C793.939 79.5589 794.029 80.2365 794.029 81.0376V89H791.94V81.0151C791.94 80.3787 791.846 79.8696 791.659 79.4878C791.472 79.0985 791.199 78.8177 790.839 78.6455C790.48 78.4658 790.038 78.376 789.514 78.376C788.998 78.376 788.526 78.4845 788.099 78.7017C787.68 78.9188 787.317 79.2183 787.01 79.6001C786.71 79.9819 786.474 80.4199 786.302 80.9141C786.138 81.4007 786.055 81.9173 786.055 82.4639ZM805.057 76.8486H806.944V88.7417C806.944 89.8123 806.727 90.7257 806.292 91.4819C805.858 92.2381 805.252 92.8109 804.473 93.2002C803.702 93.597 802.811 93.7954 801.8 93.7954C801.381 93.7954 800.887 93.728 800.318 93.5933C799.756 93.466 799.202 93.2451 798.656 92.9307C798.117 92.6237 797.664 92.2082 797.297 91.6841L798.386 90.4487C798.895 91.0627 799.427 91.4894 799.981 91.729C800.542 91.9686 801.097 92.0884 801.643 92.0884C802.302 92.0884 802.871 91.9648 803.35 91.7178C803.829 91.4707 804.2 91.1038 804.462 90.6172C804.731 90.138 804.866 89.5465 804.866 88.8428V79.5215L805.057 76.8486ZM796.69 83.0591V82.8232C796.69 81.8949 796.799 81.0526 797.016 80.2964C797.241 79.5327 797.559 78.8776 797.971 78.3311C798.39 77.7845 798.895 77.3652 799.487 77.0732C800.078 76.7738 800.745 76.624 801.486 76.624C802.25 76.624 802.916 76.7588 803.485 77.0283C804.061 77.2904 804.548 77.6759 804.945 78.1851C805.349 78.6867 805.667 79.2931 805.899 80.0044C806.132 80.7157 806.292 81.5205 806.382 82.4189V83.4521C806.3 84.3431 806.139 85.1442 805.899 85.8555C805.667 86.5667 805.349 87.1732 804.945 87.6748C804.548 88.1764 804.061 88.562 803.485 88.8315C802.908 89.0936 802.235 89.2246 801.463 89.2246C800.737 89.2246 800.078 89.0711 799.487 88.7642C798.903 88.4572 798.401 88.0267 797.982 87.4727C797.563 86.9186 797.241 86.2673 797.016 85.5186C796.799 84.7624 796.69 83.9425 796.69 83.0591ZM798.768 82.8232V83.0591C798.768 83.6655 798.828 84.2345 798.948 84.7661C799.075 85.2977 799.266 85.7656 799.521 86.1699C799.783 86.5742 800.116 86.8924 800.52 87.1245C800.924 87.3491 801.407 87.4614 801.969 87.4614C802.658 87.4614 803.227 87.3154 803.676 87.0234C804.125 86.7314 804.481 86.3459 804.743 85.8667C805.012 85.3875 805.222 84.8672 805.372 84.3057V81.5991C805.289 81.1873 805.162 80.7905 804.99 80.4087C804.825 80.0194 804.608 79.675 804.338 79.3755C804.076 79.0685 803.751 78.8252 803.361 78.6455C802.972 78.4658 802.515 78.376 801.991 78.376C801.422 78.376 800.932 78.4958 800.52 78.7354C800.116 78.9674 799.783 79.2894 799.521 79.7012C799.266 80.1055 799.075 80.5771 798.948 81.1162C798.828 81.6478 798.768 82.2168 798.768 82.8232ZM818.062 71.75V89H815.973V71.75H818.062ZM828.562 86.9224V80.667C828.562 80.1878 828.465 79.7723 828.271 79.4204C828.083 79.061 827.799 78.784 827.417 78.5894C827.035 78.3947 826.563 78.2974 826.002 78.2974C825.478 78.2974 825.017 78.3872 824.621 78.5669C824.231 78.7466 823.924 78.9824 823.7 79.2744C823.483 79.5664 823.374 79.8809 823.374 80.2178H821.296C821.296 79.7835 821.409 79.353 821.633 78.9263C821.858 78.4995 822.18 78.1139 822.599 77.7695C823.026 77.4176 823.535 77.1406 824.126 76.9385C824.725 76.7288 825.392 76.624 826.125 76.624C827.009 76.624 827.788 76.7738 828.461 77.0732C829.143 77.3727 829.674 77.8257 830.056 78.4321C830.445 79.0311 830.64 79.7835 830.64 80.6895V86.3496C830.64 86.7539 830.674 87.1844 830.741 87.6411C830.816 88.0978 830.925 88.4909 831.067 88.8203V89H828.899C828.795 88.7604 828.712 88.4422 828.652 88.0454C828.592 87.6411 828.562 87.2668 828.562 86.9224ZM828.922 81.6328L828.944 83.0928H826.844C826.253 83.0928 825.725 83.1414 825.261 83.2388C824.797 83.3286 824.407 83.4671 824.093 83.6543C823.778 83.8415 823.539 84.0773 823.374 84.3618C823.209 84.6388 823.127 84.9645 823.127 85.3389C823.127 85.7207 823.213 86.0688 823.385 86.3833C823.557 86.6978 823.816 86.9486 824.16 87.1357C824.512 87.3154 824.943 87.4053 825.452 87.4053C826.088 87.4053 826.65 87.2705 827.136 87.001C827.623 86.7314 828.008 86.402 828.293 86.0127C828.585 85.6234 828.742 85.2453 828.765 84.8784L829.652 85.8779C829.599 86.1924 829.457 86.5405 829.225 86.9224C828.993 87.3042 828.682 87.6711 828.293 88.0229C827.911 88.3674 827.454 88.6556 826.923 88.8877C826.399 89.1123 825.807 89.2246 825.148 89.2246C824.325 89.2246 823.602 89.0636 822.981 88.7417C822.367 88.4198 821.888 87.9893 821.543 87.4502C821.207 86.9036 821.038 86.2935 821.038 85.6196C821.038 84.9683 821.165 84.3955 821.42 83.9014C821.674 83.3997 822.041 82.9842 822.521 82.6548C823 82.3179 823.576 82.0633 824.25 81.8911C824.924 81.7189 825.676 81.6328 826.507 81.6328H828.922ZM835.986 79.4429V89H833.908V76.8486H835.874L835.986 79.4429ZM835.492 82.4639L834.627 82.4302C834.634 81.5991 834.758 80.8317 834.998 80.1279C835.237 79.4167 835.574 78.799 836.008 78.2749C836.443 77.7508 836.959 77.3465 837.558 77.062C838.165 76.77 838.835 76.624 839.568 76.624C840.167 76.624 840.706 76.7064 841.186 76.8711C841.665 77.0283 842.073 77.2829 842.41 77.6348C842.754 77.9867 843.016 78.4434 843.196 79.0049C843.375 79.5589 843.465 80.2365 843.465 81.0376V89H841.376V81.0151C841.376 80.3787 841.283 79.8696 841.096 79.4878C840.909 79.0985 840.635 78.8177 840.276 78.6455C839.917 78.4658 839.475 78.376 838.951 78.376C838.434 78.376 837.962 78.4845 837.536 78.7017C837.116 78.9188 836.753 79.2183 836.446 79.6001C836.147 79.9819 835.911 80.4199 835.739 80.9141C835.574 81.4007 835.492 81.9173 835.492 82.4639ZM854.494 76.8486H856.38V88.7417C856.38 89.8123 856.163 90.7257 855.729 91.4819C855.295 92.2381 854.688 92.8109 853.91 93.2002C853.139 93.597 852.248 93.7954 851.237 93.7954C850.818 93.7954 850.323 93.728 849.754 93.5933C849.193 93.466 848.639 93.2451 848.092 92.9307C847.553 92.6237 847.1 92.2082 846.733 91.6841L847.823 90.4487C848.332 91.0627 848.863 91.4894 849.417 91.729C849.979 91.9686 850.533 92.0884 851.08 92.0884C851.738 92.0884 852.307 91.9648 852.787 91.7178C853.266 91.4707 853.636 91.1038 853.898 90.6172C854.168 90.138 854.303 89.5465 854.303 88.8428V79.5215L854.494 76.8486ZM846.127 83.0591V82.8232C846.127 81.8949 846.236 81.0526 846.453 80.2964C846.677 79.5327 846.995 78.8776 847.407 78.3311C847.826 77.7845 848.332 77.3652 848.923 77.0732C849.515 76.7738 850.181 76.624 850.922 76.624C851.686 76.624 852.352 76.7588 852.921 77.0283C853.498 77.2904 853.985 77.6759 854.381 78.1851C854.786 78.6867 855.104 79.2931 855.336 80.0044C855.568 80.7157 855.729 81.5205 855.819 82.4189V83.4521C855.736 84.3431 855.576 85.1442 855.336 85.8555C855.104 86.5667 854.786 87.1732 854.381 87.6748C853.985 88.1764 853.498 88.562 852.921 88.8315C852.345 89.0936 851.671 89.2246 850.9 89.2246C850.174 89.2246 849.515 89.0711 848.923 88.7642C848.339 88.4572 847.838 88.0267 847.418 87.4727C846.999 86.9186 846.677 86.2673 846.453 85.5186C846.236 84.7624 846.127 83.9425 846.127 83.0591ZM848.205 82.8232V83.0591C848.205 83.6655 848.264 84.2345 848.384 84.7661C848.512 85.2977 848.702 85.7656 848.957 86.1699C849.219 86.5742 849.552 86.8924 849.957 87.1245C850.361 87.3491 850.844 87.4614 851.405 87.4614C852.094 87.4614 852.663 87.3154 853.112 87.0234C853.562 86.7314 853.917 86.3459 854.179 85.8667C854.449 85.3875 854.658 84.8672 854.808 84.3057V81.5991C854.726 81.1873 854.598 80.7905 854.426 80.4087C854.262 80.0194 854.044 79.675 853.775 79.3755C853.513 79.0685 853.187 78.8252 852.798 78.6455C852.409 78.4658 851.952 78.376 851.428 78.376C850.859 78.376 850.368 78.4958 849.957 78.7354C849.552 78.9674 849.219 79.2894 848.957 79.7012C848.702 80.1055 848.512 80.5771 848.384 81.1162C848.264 81.6478 848.205 82.2168 848.205 82.8232ZM866.971 86.1924V76.8486H869.06V89H867.072L866.971 86.1924ZM867.364 83.6318L868.229 83.6094C868.229 84.418 868.142 85.1667 867.97 85.8555C867.806 86.5368 867.536 87.1283 867.162 87.6299C866.787 88.1315 866.297 88.5246 865.69 88.8091C865.084 89.0861 864.347 89.2246 863.478 89.2246C862.887 89.2246 862.344 89.1385 861.85 88.9663C861.363 88.7941 860.944 88.5283 860.592 88.1689C860.24 87.8096 859.967 87.3416 859.772 86.7651C859.585 86.1886 859.491 85.4961 859.491 84.6875V76.8486H861.569V84.71C861.569 85.2565 861.629 85.7095 861.749 86.0688C861.876 86.4207 862.044 86.7015 862.254 86.9111C862.471 87.1133 862.711 87.2555 862.973 87.3379C863.242 87.4202 863.519 87.4614 863.804 87.4614C864.687 87.4614 865.387 87.293 865.904 86.9561C866.42 86.6117 866.791 86.1512 867.016 85.5747C867.248 84.9907 867.364 84.3431 867.364 83.6318ZM879.392 86.9224V80.667C879.392 80.1878 879.294 79.7723 879.1 79.4204C878.912 79.061 878.628 78.784 878.246 78.5894C877.864 78.3947 877.393 78.2974 876.831 78.2974C876.307 78.2974 875.847 78.3872 875.45 78.5669C875.06 78.7466 874.753 78.9824 874.529 79.2744C874.312 79.5664 874.203 79.8809 874.203 80.2178H872.125C872.125 79.7835 872.238 79.353 872.462 78.9263C872.687 78.4995 873.009 78.1139 873.428 77.7695C873.855 77.4176 874.364 77.1406 874.956 76.9385C875.555 76.7288 876.221 76.624 876.955 76.624C877.838 76.624 878.617 76.7738 879.291 77.0732C879.972 77.3727 880.503 77.8257 880.885 78.4321C881.275 79.0311 881.469 79.7835 881.469 80.6895V86.3496C881.469 86.7539 881.503 87.1844 881.57 87.6411C881.645 88.0978 881.754 88.4909 881.896 88.8203V89H879.729C879.624 88.7604 879.541 88.4422 879.481 88.0454C879.422 87.6411 879.392 87.2668 879.392 86.9224ZM879.751 81.6328L879.773 83.0928H877.673C877.082 83.0928 876.554 83.1414 876.09 83.2388C875.626 83.3286 875.236 83.4671 874.922 83.6543C874.607 83.8415 874.368 84.0773 874.203 84.3618C874.038 84.6388 873.956 84.9645 873.956 85.3389C873.956 85.7207 874.042 86.0688 874.214 86.3833C874.387 86.6978 874.645 86.9486 874.989 87.1357C875.341 87.3154 875.772 87.4053 876.281 87.4053C876.917 87.4053 877.479 87.2705 877.965 87.001C878.452 86.7314 878.838 86.402 879.122 86.0127C879.414 85.6234 879.571 85.2453 879.594 84.8784L880.481 85.8779C880.429 86.1924 880.286 86.5405 880.054 86.9224C879.822 87.3042 879.511 87.6711 879.122 88.0229C878.74 88.3674 878.284 88.6556 877.752 88.8877C877.228 89.1123 876.636 89.2246 875.978 89.2246C875.154 89.2246 874.431 89.0636 873.81 88.7417C873.196 88.4198 872.717 87.9893 872.373 87.4502C872.036 86.9036 871.867 86.2935 871.867 85.6196C871.867 84.9683 871.994 84.3955 872.249 83.9014C872.504 83.3997 872.87 82.9842 873.35 82.6548C873.829 82.3179 874.405 82.0633 875.079 81.8911C875.753 81.7189 876.505 81.6328 877.336 81.6328H879.751ZM892.61 76.8486H894.497V88.7417C894.497 89.8123 894.279 90.7257 893.845 91.4819C893.411 92.2381 892.805 92.8109 892.026 93.2002C891.255 93.597 890.364 93.7954 889.353 93.7954C888.934 93.7954 888.44 93.728 887.871 93.5933C887.309 93.466 886.755 93.2451 886.208 92.9307C885.669 92.6237 885.216 92.2082 884.85 91.6841L885.939 90.4487C886.448 91.0627 886.98 91.4894 887.534 91.729C888.095 91.9686 888.649 92.0884 889.196 92.0884C889.855 92.0884 890.424 91.9648 890.903 91.7178C891.382 91.4707 891.753 91.1038 892.015 90.6172C892.284 90.138 892.419 89.5465 892.419 88.8428V79.5215L892.61 76.8486ZM884.243 83.0591V82.8232C884.243 81.8949 884.352 81.0526 884.569 80.2964C884.793 79.5327 885.112 78.8776 885.523 78.3311C885.943 77.7845 886.448 77.3652 887.04 77.0732C887.631 76.7738 888.297 76.624 889.039 76.624C889.802 76.624 890.469 76.7588 891.038 77.0283C891.614 77.2904 892.101 77.6759 892.498 78.1851C892.902 78.6867 893.22 79.2931 893.452 80.0044C893.684 80.7157 893.845 81.5205 893.935 82.4189V83.4521C893.853 84.3431 893.692 85.1442 893.452 85.8555C893.22 86.5667 892.902 87.1732 892.498 87.6748C892.101 88.1764 891.614 88.562 891.038 88.8315C890.461 89.0936 889.787 89.2246 889.016 89.2246C888.29 89.2246 887.631 89.0711 887.04 88.7642C886.456 88.4572 885.954 88.0267 885.535 87.4727C885.115 86.9186 884.793 86.2673 884.569 85.5186C884.352 84.7624 884.243 83.9425 884.243 83.0591ZM886.321 82.8232V83.0591C886.321 83.6655 886.381 84.2345 886.5 84.7661C886.628 85.2977 886.819 85.7656 887.073 86.1699C887.335 86.5742 887.668 86.8924 888.073 87.1245C888.477 87.3491 888.96 87.4614 889.521 87.4614C890.21 87.4614 890.779 87.3154 891.229 87.0234C891.678 86.7314 892.033 86.3459 892.295 85.8667C892.565 85.3875 892.775 84.8672 892.924 84.3057V81.5991C892.842 81.1873 892.715 80.7905 892.542 80.4087C892.378 80.0194 892.161 79.675 891.891 79.3755C891.629 79.0685 891.303 78.8252 890.914 78.6455C890.525 78.4658 890.068 78.376 889.544 78.376C888.975 78.376 888.485 78.4958 888.073 78.7354C887.668 78.9674 887.335 79.2894 887.073 79.7012C886.819 80.1055 886.628 80.5771 886.5 81.1162C886.381 81.6478 886.321 82.2168 886.321 82.8232ZM902.695 89.2246C901.849 89.2246 901.081 89.0824 900.393 88.7979C899.711 88.5059 899.124 88.0978 898.629 87.5737C898.143 87.0496 897.768 86.4282 897.506 85.7095C897.244 84.9907 897.113 84.2046 897.113 83.3511V82.8794C897.113 81.8911 897.259 81.0114 897.551 80.2402C897.843 79.4616 898.24 78.8027 898.742 78.2637C899.243 77.7246 899.812 77.3166 900.449 77.0396C901.085 76.7625 901.744 76.624 902.425 76.624C903.294 76.624 904.042 76.7738 904.671 77.0732C905.308 77.3727 905.828 77.792 906.232 78.3311C906.637 78.8626 906.936 79.4915 907.131 80.2178C907.326 80.9365 907.423 81.7227 907.423 82.5762V83.5083H898.349V81.8125H905.345V81.6553C905.315 81.1162 905.203 80.5921 905.008 80.083C904.821 79.5739 904.522 79.1546 904.11 78.8252C903.698 78.4958 903.137 78.3311 902.425 78.3311C901.954 78.3311 901.519 78.4321 901.123 78.6343C900.726 78.8289 900.385 79.1209 900.101 79.5103C899.816 79.8996 899.595 80.375 899.438 80.9365C899.281 81.498 899.202 82.1457 899.202 82.8794V83.3511C899.202 83.9276 899.281 84.4704 899.438 84.9795C899.603 85.4811 899.839 85.9229 900.146 86.3047C900.46 86.6865 900.838 86.986 901.28 87.2031C901.729 87.4202 902.238 87.5288 902.807 87.5288C903.541 87.5288 904.162 87.3791 904.671 87.0796C905.181 86.7801 905.626 86.3796 906.008 85.8779L907.266 86.8774C907.004 87.2743 906.67 87.6523 906.266 88.0117C905.862 88.3711 905.364 88.6631 904.772 88.8877C904.188 89.1123 903.496 89.2246 902.695 89.2246ZM916.924 85.7769C916.924 85.4774 916.856 85.2004 916.722 84.9458C916.594 84.6838 916.329 84.4479 915.924 84.2383C915.528 84.0212 914.929 83.834 914.127 83.6768C913.454 83.5345 912.843 83.366 912.297 83.1714C911.758 82.9767 911.297 82.7409 910.916 82.4639C910.541 82.1868 910.253 81.8612 910.051 81.4868C909.849 81.1125 909.748 80.6745 909.748 80.1729C909.748 79.6937 909.852 79.2407 910.062 78.814C910.279 78.3872 910.582 78.0091 910.972 77.6797C911.368 77.3503 911.844 77.092 912.398 76.9048C912.952 76.7176 913.57 76.624 914.251 76.624C915.224 76.624 916.055 76.7962 916.744 77.1406C917.433 77.485 917.961 77.9455 918.328 78.522C918.694 79.091 918.878 79.7236 918.878 80.4199H916.8C916.8 80.083 916.699 79.7573 916.497 79.4429C916.302 79.1209 916.014 78.8551 915.632 78.6455C915.258 78.4359 914.798 78.3311 914.251 78.3311C913.674 78.3311 913.207 78.4209 912.847 78.6006C912.495 78.7728 912.237 78.9937 912.072 79.2632C911.915 79.5327 911.836 79.8172 911.836 80.1167C911.836 80.3413 911.874 80.5435 911.949 80.7231C912.031 80.8953 912.173 81.0563 912.375 81.2061C912.578 81.3483 912.862 81.4831 913.229 81.6104C913.596 81.7376 914.064 81.8649 914.633 81.9922C915.629 82.2168 916.448 82.4863 917.092 82.8008C917.736 83.1152 918.215 83.5008 918.53 83.9575C918.844 84.4142 919.001 84.9683 919.001 85.6196C919.001 86.1512 918.889 86.6379 918.665 87.0796C918.447 87.5213 918.129 87.9032 917.71 88.2251C917.298 88.5396 916.804 88.7866 916.228 88.9663C915.659 89.1385 915.018 89.2246 914.307 89.2246C913.236 89.2246 912.331 89.0337 911.589 88.6519C910.848 88.27 910.287 87.7759 909.905 87.1694C909.523 86.563 909.332 85.9229 909.332 85.249H911.421C911.451 85.818 911.616 86.271 911.915 86.6079C912.215 86.9373 912.581 87.1732 913.016 87.3154C913.45 87.4502 913.88 87.5176 914.307 87.5176C914.876 87.5176 915.352 87.4427 915.733 87.293C916.123 87.1432 916.418 86.9373 916.621 86.6753C916.823 86.4132 916.924 86.1138 916.924 85.7769Z" fill="white"/>
</g>
</svg>
